<svg xmlns="http://www.w3.org/2000/svg" xmlns:xlink="http://www.w3.org/1999/xlink" version="1.1" x="0px" y="0px" viewBox="0 0 48 60" style="enable-background:new 0 0 48 48;" xml:space="preserve"><g><path d="M24,12c1.4,0,14-0.1,14-4V4c0-3.9-12.6-4-14-4c-1.4,0-14,0.1-14,4v4C10,11.9,22.6,12,24,12z M12,7.9V6.3   c0.3,0.1,0.6,0.3,1,0.4v1.9C12.5,8.3,12.1,8.1,12,7.9z M22,8v2c-1.1,0-2.1-0.1-3-0.2v-2C20.1,7.9,21.1,7.9,22,8z M17,9.5   c-0.7-0.1-1.4-0.2-2-0.4V7.2c0.6,0.1,1.3,0.2,2,0.3V9.5z M24,10V8c1.1,0,8.4-0.1,12-1.7v1.7C35.5,8.7,31.1,10,24,10z M25.3,2   c0.1,0,0.3,0,0.4,0c0.3,0,0.5,0,0.8,0c0.2,0,0.3,0,0.5,0c0.2,0,0.5,0,0.7,0c0.2,0,0.3,0,0.5,0c0.2,0,0.4,0,0.6,0c0.2,0,0.3,0,0.5,0   c0.2,0,0.4,0,0.6,0.1c0.2,0,0.3,0,0.4,0.1c0.2,0,0.3,0,0.5,0.1c0.1,0,0.3,0,0.4,0.1c0.2,0,0.3,0,0.5,0.1c0.1,0,0.3,0,0.4,0.1   c0.1,0,0.3,0.1,0.4,0.1c0.1,0,0.2,0.1,0.4,0.1c0.1,0,0.3,0.1,0.4,0.1c0.1,0,0.2,0.1,0.3,0.1c0.1,0,0.2,0.1,0.3,0.1   c0.1,0,0.2,0.1,0.3,0.1c0.1,0,0.2,0.1,0.3,0.1c0.1,0,0.2,0.1,0.2,0.1c0.1,0,0.2,0.1,0.2,0.1c0.1,0,0.1,0.1,0.2,0.1   c0.1,0,0.1,0.1,0.2,0.1c0.1,0,0.1,0.1,0.2,0.1c0.1,0,0.1,0.1,0.2,0.1c0,0,0.1,0.1,0.1,0.1c0,0,0.1,0.1,0.1,0.1c0,0,0.1,0.1,0.1,0.1   c0,0,0,0,0,0c-0.7,0.8-5,2-11.9,2c-6.9,0-11.2-1.2-11.9-2c0,0,0,0,0,0c0,0,0.1,0,0.1-0.1c0,0,0.1-0.1,0.1-0.1c0,0,0.1,0,0.1-0.1   c0,0,0.1-0.1,0.2-0.1c0.1,0,0.1-0.1,0.2-0.1c0.1,0,0.1-0.1,0.2-0.1c0.1,0,0.1-0.1,0.2-0.1c0.1,0,0.2-0.1,0.3-0.1   c0.1,0,0.2-0.1,0.2-0.1c0.1,0,0.2-0.1,0.3-0.1c0.1,0,0.2-0.1,0.3-0.1C14.3,3,14.5,3,14.6,3c0.1,0,0.2-0.1,0.3-0.1   c0.1,0,0.2-0.1,0.4-0.1c0.1,0,0.2-0.1,0.4-0.1c0.1,0,0.3-0.1,0.4-0.1c0.1,0,0.3,0,0.4-0.1c0.1,0,0.3,0,0.5-0.1c0.1,0,0.3,0,0.4-0.1   c0.2,0,0.3,0,0.5-0.1c0.1,0,0.3,0,0.4-0.1c0.2,0,0.4,0,0.6-0.1c0.2,0,0.3,0,0.5,0c0.2,0,0.4,0,0.6,0c0.2,0,0.3,0,0.5,0   c0.2,0,0.4,0,0.7,0c0.2,0,0.3,0,0.5,0c0.3,0,0.5,0,0.8,0c0.1,0,0.3,0,0.4,0c0.4,0,0.8,0,1.3,0S24.9,2,25.3,2z"/><path d="M16.5,25.8c3.7,0,7.9-0.8,8.7-0.9c1.4-0.3,13.7-2.8,13-6.6l-0.8-3.9c-0.8-3.8-13.1-1.5-14.5-1.2c-2.2,0.4-4.2,1-6.1,1.6   c-1.1,0.4-2.1,0.7-3,1.1c-2.9,1.3-4.2,2.6-3.9,3.9l0.8,3.9C11,25.3,13.6,25.8,16.5,25.8z M12.3,21.6c0.3,0.1,0.7,0.1,1.1,0.2   l0.4,1.8c-0.6-0.1-0.9-0.2-1.1-0.4L12.3,21.6z M12,19.2c0,0,0.1-0.1,0.1-0.1c0,0,0.1-0.1,0.1-0.1c0,0,0.1-0.1,0.1-0.1   c0,0,0.1-0.1,0.1-0.1c0.1,0,0.1-0.1,0.2-0.1c0.1,0,0.1-0.1,0.2-0.1c0.1,0,0.1-0.1,0.2-0.1c0.1,0,0.1-0.1,0.2-0.1   c0.1,0,0.2-0.1,0.3-0.1c0.1,0,0.2-0.1,0.3-0.1c0.1,0,0.2-0.1,0.3-0.1c0.1,0,0.2-0.1,0.3-0.1c0.1,0,0.2-0.1,0.3-0.1   c0.1,0,0.2-0.1,0.3-0.1c0.1-0.1,0.3-0.1,0.4-0.2c0.1-0.1,0.2-0.1,0.4-0.2c0.1-0.1,0.3-0.1,0.4-0.2c0.1-0.1,0.3-0.1,0.4-0.2   c0.1-0.1,0.3-0.1,0.4-0.2c0.2-0.1,0.3-0.1,0.5-0.2c0.2,0,0.3-0.1,0.5-0.1c0.2-0.1,0.3-0.1,0.5-0.2c0.2,0,0.3-0.1,0.5-0.1   c0.2-0.1,0.4-0.1,0.6-0.2c0.2,0,0.3-0.1,0.5-0.1c0.2-0.1,0.4-0.1,0.6-0.2c0.1,0,0.3-0.1,0.4-0.1c0.2-0.1,0.5-0.1,0.7-0.2   c0,0,0.1,0,0.1,0c0.4-0.1,0.7-0.2,1.1-0.2c0.4-0.1,0.9-0.2,1.3-0.2c0.1,0,0.2,0,0.3,0c0.3-0.1,0.6-0.1,0.9-0.1c0.1,0,0.2,0,0.4-0.1   c0.3,0,0.5-0.1,0.8-0.1c0.1,0,0.3,0,0.4,0c0.2,0,0.5-0.1,0.7-0.1c0.1,0,0.2,0,0.4,0c0.2,0,0.4,0,0.7-0.1c0.1,0,0.2,0,0.4,0   c0.2,0,0.4,0,0.6,0c0.1,0,0.2,0,0.3,0c0.2,0,0.4,0,0.5,0c0.1,0,0.2,0,0.3,0c0.2,0,0.3,0,0.5,0c0.1,0,0.2,0,0.3,0c0.1,0,0.3,0,0.4,0   c0.1,0,0.2,0,0.3,0c0.1,0,0.3,0,0.4,0c0.1,0,0.2,0,0.3,0c0.1,0,0.2,0,0.3,0c0.1,0,0.2,0,0.2,0c0.1,0,0.2,0,0.3,0c0.1,0,0.1,0,0.2,0   c0.1,0,0.2,0,0.2,0c0.1,0,0.1,0,0.2,0c0.1,0,0.1,0,0.2,0.1c0,0,0.1,0,0.1,0c0,0,0.1,0,0.1,0.1c0,0,0.1,0,0.1,0.1c0,0,0,0,0.1,0   c-0.6,0.9-4.5,2.9-11.3,4.3c-6.8,1.3-11.2,1-12.1,0.3C11.9,19.3,11.9,19.3,12,19.2C12,19.3,12,19.2,12,19.2z M22.4,21.3l0.4,2   c-1.1,0.2-2.1,0.3-3,0.4l-0.4-2C20.5,21.6,21.6,21.4,22.4,21.3z M15.8,23.8l-0.4-1.9c0.1,0,0.2,0,0.3,0c0.6,0,1.2,0,1.7-0.1   l0.4,1.9C17.1,23.8,16.4,23.8,15.8,23.8z M24.8,22.9C24.8,22.9,24.8,22.9,24.8,22.9L24.8,22.9l-0.4-2c1.1-0.2,8.2-1.7,11.4-4   l0.3,1.6C35.8,19.4,31.8,21.5,24.8,22.9z"/><path d="M27,32.8c-3.1-1.8-6.1-3.2-8.6-4c-3-0.9-4.8-0.8-5.5,0.4l-2,3.5c-2,3.4,8.9,9.8,10.1,10.5c3.1,1.8,6.1,3.2,8.6,4   c1.3,0.4,2.4,0.6,3.3,0.6c1.1,0,1.8-0.3,2.2-1l2-3.5C39.1,39.9,28.3,33.5,27,32.8z M27.1,35.2c0.1,0.1,0.2,0.2,0.4,0.2   c0.2,0.1,0.5,0.3,0.7,0.4c0.1,0.1,0.3,0.2,0.4,0.3c0.2,0.1,0.4,0.2,0.6,0.4c0.1,0.1,0.3,0.2,0.4,0.3c0.2,0.1,0.3,0.2,0.5,0.3   c0.1,0.1,0.2,0.2,0.4,0.3c0.2,0.1,0.3,0.2,0.5,0.3c0.1,0.1,0.2,0.2,0.3,0.3c0.1,0.1,0.3,0.2,0.4,0.3c0.1,0.1,0.2,0.2,0.3,0.2   c0.1,0.1,0.3,0.2,0.4,0.3c0.1,0.1,0.2,0.2,0.3,0.2c0.1,0.1,0.2,0.2,0.3,0.3c0.1,0.1,0.2,0.1,0.2,0.2c0.1,0.1,0.2,0.2,0.3,0.3   c0.1,0.1,0.1,0.1,0.2,0.2c0.1,0.1,0.2,0.2,0.3,0.3c0.1,0.1,0.1,0.1,0.2,0.2c0.1,0.1,0.2,0.2,0.2,0.3c0.1,0.1,0.1,0.1,0.1,0.2   c0.1,0.1,0.1,0.2,0.2,0.2c0,0.1,0.1,0.1,0.1,0.1c0.1,0.1,0.1,0.1,0.2,0.2c0,0,0.1,0.1,0.1,0.1c0,0.1,0.1,0.1,0.1,0.2   c0,0,0,0.1,0.1,0.1c0,0.1,0.1,0.1,0.1,0.1c0,0,0,0.1,0,0.1c0,0,0,0,0,0.1c-1,0.3-5.3-0.8-11.3-4.3c-6-3.5-9.1-6.7-9.3-7.7   c0,0,0,0,0.1,0c0,0,0.1,0,0.1,0c0.1,0,0.1,0,0.2,0c0,0,0,0,0.1,0c0.1,0,0.2,0,0.3,0c0,0,0,0,0,0c1.7,0.2,5.6,1.4,10.6,4.3h0   C26.4,34.8,26.8,35,27.1,35.2z M15.6,34.5c0.5,0.4,1,0.9,1.6,1.3l-1,1.7c-0.6-0.5-1.1-0.9-1.5-1.3L15.6,34.5z M18.8,37   c0.8,0.6,1.6,1.1,2.5,1.7l-1,1.7c-0.9-0.6-1.7-1.1-2.5-1.7L18.8,37z M13.5,32.2c0.2,0.3,0.4,0.5,0.7,0.8l-0.9,1.6   c-0.4-0.5-0.5-0.8-0.6-1L13.5,32.2z M22,41.5C22,41.4,21.9,41.4,22,41.5L22,41.5l1-1.7c3.1,1.8,6.1,3.2,8.6,3.9   c1,0.3,1.9,0.5,2.6,0.6l-0.8,1.4C32.6,46.1,28.2,45,22,41.5z"/></g><text x="0" y="63" fill="#000000" font-size="5px" font-weight="bold" font-family="'Helvetica Neue', Helvetica, Arial-Unicode, Arial, Sans-serif">Created by Depb Dew</text><text x="0" y="68" fill="#000000" font-size="5px" font-weight="bold" font-family="'Helvetica Neue', Helvetica, Arial-Unicode, Arial, Sans-serif">from the Noun Project</text></svg>